<?xml version="1.0" standalone="no"?>
<!DOCTYPE svg PUBLIC "-//W3C//DTD SVG 20010904//EN"
 "http://www.w3.org/TR/2001/REC-SVG-20010904/DTD/svg10.dtd">
<svg version="1.0" xmlns="http://www.w3.org/2000/svg"
 width="256.000000pt" height="256.000000pt" viewBox="0 0 256.000000 256.000000"
 preserveAspectRatio="xMidYMid meet">
<metadata>
Created by potrace 1.15, written by Peter Selinger 2001-2017
</metadata>
<g transform="translate(0.000000,256.000000) scale(0.100000,-0.100000)"
fill="#868e96" stroke="none">
<path d="M650 1502 c0 -371 3 -348 -64 -420 -81 -88 -214 -112 -315 -57 -105
57 -158 153 -149 269 6 73 25 113 78 166 63 63 93 75 190 75 75 0 90 -3 133
-28 27 -16 50 -27 52 -25 2 1 6 28 10 59 l7 56 -54 24 c-43 19 -70 23 -149 24
-90 0 -99 -2 -171 -38 -86 -42 -133 -89 -176 -177 -24 -50 -27 -65 -27 -165 0
-95 3 -116 24 -158 37 -75 104 -142 179 -179 57 -28 79 -34 154 -36 99 -4 160
11 230 58 l43 29 3 -34 3 -35 65 0 64 0 0 465 0 465 -65 0 -65 0 0 -338z"/>
<path d="M1620 1740 l0 -80 50 0 50 0 0 80 0 80 -50 0 -50 0 0 -80z"/>
<path d="M1030 1765 l0 -25 164 0 c123 0 165 3 169 13 12 34 -3 37 -169 37
l-164 0 0 -25z"/>
<path d="M2003 1775 c-11 -31 13 -36 173 -33 151 3 159 4 159 23 0 19 -8 20
-163 23 -141 2 -163 0 -169 -13z"/>
<path d="M1078 1631 c-104 -34 -176 -95 -223 -188 -78 -156 -47 -333 78 -451
85 -80 130 -96 262 -97 101 0 115 2 167 28 79 39 143 104 181 185 29 61 32 76
32 162 0 83 -4 103 -29 157 -35 77 -114 154 -193 189 -78 35 -196 41 -275 15z
m237 -119 c89 -46 154 -146 155 -238 0 -154 -122 -278 -274 -277 -73 0 -120
18 -176 69 -151 136 -115 368 70 454 58 27 165 23 225 -8z"/>
<path d="M2043 1630 c-108 -36 -191 -116 -232 -225 -29 -77 -29 -203 0 -280
27 -72 101 -153 181 -196 61 -33 67 -34 173 -34 101 0 115 2 170 29 76 38 143
105 181 181 26 55 29 69 29 165 0 95 -3 111 -28 162 -64 129 -183 207 -330
214 -63 3 -96 0 -144 -16z m242 -115 c52 -25 112 -87 136 -138 44 -97 14 -236
-66 -306 -150 -131 -357 -85 -437 97 -30 68 -23 173 17 237 35 56 87 101 141
121 52 19 158 13 209 -11z"/>
<path d="M1618 1268 c-3 -400 -1 -383 -71 -470 -32 -40 -31 -56 9 -103 l25
-30 34 40 c19 22 51 70 70 106 l35 67 0 376 0 376 -49 0 -50 0 -3 -362z"/>
</g>
</svg>
