<?xml version="1.0"?>
<svg width="24" height="24" xmlns="http://www.w3.org/2000/svg" xmlns:svg="http://www.w3.org/2000/svg" fill="#868e96">
 <g class="layer">
  <title>Layer 1</title>
  <path d="m2.87,24l-0.97,0a3.87,3.87 0 0 1 -0.07,-0.2c-0.22,-0.66 -0.6,-1.49 -0.7,-2.15c-0.14,-0.99 0.78,-1.04 1.38,-1.47c0.91,-0.66 1.63,-1.02 2.63,-1.62c0.29,-0.17 1.18,-0.62 1.28,-0.83c0.2,-0.4 -0.35,-0.98 -0.49,-1.3c-0.23,-0.5 -0.35,-0.93 -0.38,-1.43c-0.82,-0.13 -1.45,-0.63 -1.84,-1.19c-0.63,-0.92 -1.07,-2.63 -0.53,-3.93c0.05,-0.1 0.26,-0.31 0.29,-0.46c0.06,-0.31 -0.11,-0.72 -0.12,-1.05c-0.06,-1.69 0.28,-3.15 1.42,-3.66c0.46,-1.84 2.11,-2.46 3.68,-3.37c0.58,-0.34 1.22,-0.56 1.89,-0.81c2.37,-0.87 6.02,-0.71 7.99,0.79c0.83,0.63 2.18,1.97 2.65,2.94c1.27,2.55 1.18,6.82 0.29,9.93c-0.12,0.42 -0.29,1.03 -0.53,1.53c-0.17,0.35 -0.69,1.05 -0.63,1.36c0.07,0.32 1.19,1.17 1.44,1.4c0.43,0.42 1.26,0.97 1.32,1.5c0.07,0.55 -0.25,1.33 -0.41,1.87c-0.22,0.72 -0.44,1.44 -0.65,2.13l-18.94,0l0,0.02zm11.11,-3.54a7.72,7.72 0 0 0 -2.07,-0.76c-0.87,-0.16 -0.78,1.19 -0.75,2c0.03,0.64 0.36,1.31 0.51,1.74c0.08,0.2 0.09,0.41 0.26,0.45c0.3,0.07 1.29,-0.33 1.57,-0.48c0.6,-0.33 1.07,-0.84 1.58,-1.19c0.01,-0.17 0.01,-0.34 0.03,-0.51a2.65,2.65 0 0 0 -1.1,-0.27c0.31,-0.15 0.75,-0.15 1.04,-0.33l0.01,-0.2c-0.49,-0.03 -0.69,-0.25 -1.02,-0.43l-0.06,-0.02zm7.45,2.93a17.78,17.78 0 0 0 0.46,-1.75c0.06,-0.28 0.22,-0.91 0.18,-1.17c-0.06,-0.46 -0.68,-0.8 -1,-1.09c-0.59,-0.52 -0.95,-0.97 -1.56,-1.47c-0.25,0.38 -0.78,0.62 -0.98,0.92c1.44,-0.69 1.71,2.62 1.14,3.69c0.09,0.33 0.39,0.45 0.51,0.73l-0.08,0.17l1.29,0c0.01,0 0.03,0 0.04,0.01l0,-0.04zm-6.63,-0.01c-0.05,-0.07 -0.1,-0.13 -0.15,-0.21l-0.31,0.2l0.45,0l0.01,0.01zm2.77,0c0,-0.21 0.01,-0.4 0.03,-0.59c-0.53,0.02 -0.83,-0.49 -1.2,-0.53c-0.32,-0.05 -0.6,0.36 -1.02,0.19c-0.1,0.11 -0.18,0.23 -0.28,0.32c0.15,0.18 0.29,0.37 0.42,0.58l0.81,0a0.3,0.3 0 0 1 0.3,-0.28c0.17,0 0.29,0.12 0.29,0.27l0.66,0l-0.01,0.04zm2.11,0c-0.31,-0.48 -0.95,-0.9 -1.68,-0.55l-0.03,0.54l1.71,0l0,0.01zm-8.51,0l-0.1,-0.34c-0.23,-0.72 -0.36,-1.26 -0.41,-1.68c-0.91,-0.44 -1.87,-0.87 -2.65,-1.43c-0.15,-0.1 -1.11,-1.35 -1.23,-1.3c-1.74,0.67 -3.36,1.86 -4.82,2.98c0.26,0.56 0.48,1.14 0.69,1.74l8.51,0l0.01,0.03zm8.27,-2.11c-0.03,-0.51 -0.17,-1.56 -0.48,-1.74c-0.66,-0.39 -1.85,0.78 -2.34,0.94c0.04,0.15 0.13,0.27 0.15,0.48c0.28,-0.07 0.64,-0.03 0.89,0.1c-0.29,0.03 -0.62,0.03 -0.82,0.16c-0.07,0.19 0.02,0.48 -0.03,0.76c0.69,0.2 1.5,0.31 2.39,0.34c0.16,-0.23 0.22,-0.65 0.21,-1.09l0.03,0.05zm-4.08,-0.36c-0.05,0.38 0.04,0.51 0.12,0.94c1.26,0.39 1.03,-1.74 -0.14,-0.96l0.02,0.02zm-6.6,-1.41c-0.45,0.46 1.27,1.08 1.81,1.11c0,-0.29 0.17,-0.56 0.14,-0.77c-0.65,-0.11 -1.5,-0.04 -1.95,-0.34zm5.56,0.21c0,0.05 -0.06,0.04 -0.06,0.07c0.58,0.45 1.01,0.54 1.8,0.51c0.35,-0.26 0.67,-0.56 1.04,-0.81c-0.85,0.08 -1.93,0.61 -2.77,0.23l-0.01,0zm3.42,-17.72c-1.6,-0.91 -4.35,-1.59 -6.07,-0.73c-1.38,0.69 -3.27,1.84 -3.9,3.29c0.6,1.4 -0.17,2.69 -0.23,4.11c-0.01,0.76 0.36,1.42 0.39,2.24c-0.2,0.34 -0.82,0.38 -1.26,0.36c-0.14,-0.73 -0.4,-1.55 -1.15,-1.63c-1.06,-0.12 -1.85,0.76 -1.89,1.68c-0.06,1.08 0.83,2.86 2.08,2.74c0.49,-0.04 0.61,-0.53 1.14,-0.53c0.29,0.57 -0.44,0.75 -0.52,1.15c-0.02,0.1 0.06,0.51 0.1,0.7c0.24,0.95 0.75,2.16 1.25,2.88c0.63,0.9 1.88,1.05 3.23,1.15c0.24,-0.53 1.12,-0.48 1.7,-0.35c-0.69,-0.27 -1.33,-0.95 -1.87,-1.53c-0.62,-0.68 -1.23,-1.41 -1.26,-2.28c1.15,1.6 2.1,3 4.2,3.7c1.59,0.53 3.45,-0.25 4.66,-1.1c0.51,-0.36 0.81,-0.93 1.17,-1.44c1.35,-1.94 1.98,-4.71 1.85,-7.4c-0.06,-1.11 -0.06,-2.22 -0.44,-2.95c-0.39,-0.78 -1.69,-1.47 -2.47,-0.78c-0.15,-0.77 0.63,-1.23 1.54,-0.96c-0.66,-0.86 -1.33,-1.86 -2.26,-2.39l0.01,0.07zm-4.16,12.91c0.62,1.54 2.72,1.36 4.51,1.32c-0.09,0.19 -0.26,0.43 -0.47,0.51c-0.57,0.24 -2.14,0.41 -2.94,-0.01c-0.5,-0.27 -0.82,-0.87 -1.1,-1.22c-0.14,-0.18 -0.79,-0.61 -0.01,-0.61l0.01,0.01zm0.16,-0.87c0.9,0.46 2.52,0.51 3.74,0.48c0.06,0.26 0.06,0.59 0.06,0.91c-1.55,0.08 -3.38,-0.3 -3.79,-1.4l-0.01,0l0,0.01zm6.68,-0.59c-0.47,0.9 -1.15,1.9 -2.54,1.93c-0.02,-0.29 -0.05,-0.74 0,-0.91c1.06,-0.1 1.73,-0.64 2.54,-1.01l0,-0.01zm-0.65,-0.67c-1.02,0.66 -2.15,1.38 -3.82,1.21c-0.36,-0.31 -0.49,-1 -0.14,-1.45c0.18,0.31 0.06,0.88 0.57,0.97c0.94,0.16 2.03,-0.58 2.73,-0.84c0.42,-0.72 -0.05,-0.98 -0.42,-1.44c-0.79,-0.93 -1.83,-2.1 -1.81,-3.51c0.32,-0.22 0.35,0.35 0.39,0.45c0.41,0.96 1.43,2.18 2.18,3c0.18,0.21 0.48,0.39 0.51,0.53c0.09,0.39 -0.26,0.85 -0.21,1.11l0.02,-0.03zm-13.44,-0.67c-0.31,-0.19 -0.39,-0.99 -0.77,-1.01c-0.53,-0.03 -0.43,1.05 -0.43,1.68c-0.37,-0.33 -0.44,-1.37 -0.17,-1.89c-0.3,-0.15 -0.44,0.16 -0.62,0.28c0.22,-1.59 2.34,-0.73 1.99,0.96l0,-0.02zm-1.62,-6.1c-0.68,0.75 -0.54,2.17 -0.46,3.18c1.25,-0.78 2.9,0.06 2.89,1.4c0.59,-0.02 0.22,-0.75 0.11,-1.22c-0.35,-1.53 0.59,-3.18 0.04,-4.59c-1.06,0.09 -1.94,0.52 -2.57,1.22l-0.01,0.01zm9.12,1.11c0.31,0.56 0.41,1.15 0.84,1.57c0.2,0.19 0.58,0.42 0.39,0.95c-0.05,0.12 -0.37,0.39 -0.55,0.45c-0.68,0.19 -2.26,0.03 -1.72,-0.81c0.56,0.01 1.31,0.36 1.73,-0.05c-0.31,-0.52 -0.89,-1.53 -0.67,-2.13l-0.02,0.02zm6.2,-0.01l0.07,0c0.33,0.66 0.6,1.37 1,1.96c-0.27,0.63 -2.05,1.19 -2.02,0.06c0.39,-0.17 1.05,-0.04 1.4,-0.25c-0.2,-0.56 -0.48,-1.01 -0.44,-1.77l-0.01,0zm-6.93,-1.62c-1.42,-0.33 -2.13,0.59 -2.56,1.55c-0.38,-0.09 -0.23,-0.61 -0.13,-0.88c0.25,-0.7 1.28,-1.63 2.12,-1.51c0.36,0.06 0.85,0.39 0.57,0.84zm-3.46,-3.89c-1.56,0.44 -3.56,1.58 -4.2,2.98c0.5,-0.07 0.84,-0.32 1.33,-0.35c0.19,-0.02 0.43,0.07 0.64,0.01c0.43,-0.1 0.78,-1.06 1.1,-1.41c0.31,-0.34 0.69,-0.5 0.94,-0.81c0.17,-0.09 0.41,-0.07 0.42,-0.33c-0.07,-0.07 -0.15,-0.13 -0.23,-0.1l0,0.01z" id="svg_1"/>
 </g>
</svg>