<?xml version="1.0" standalone="no"?>
<!DOCTYPE svg PUBLIC "-//W3C//DTD SVG 20010904//EN"
 "http://www.w3.org/TR/2001/REC-SVG-20010904/DTD/svg10.dtd">
<svg version="1.0" xmlns="http://www.w3.org/2000/svg"
 width="179.000000pt" height="188.000000pt" viewBox="0 0 179.000000 188.000000"
 preserveAspectRatio="xMidYMid meet">
<metadata>
Created by potrace 1.15, written by Peter Selinger 2001-2017
</metadata>
<g transform="translate(0.000000,188.000000) scale(0.100000,-0.100000)"
fill="#BD5D38" stroke="none">
<path d="M0 940 l0 -940 895 0 895 0 0 811 c0 644 -3 810 -12 807 -7 -2 -143
-150 -302 -329 -160 -178 -295 -324 -302 -324 -13 0 -304 297 -304 310 0 12
102 136 110 133 4 -2 44 -45 91 -96 54 -61 90 -92 101 -90 19 3 478 622 478
645 0 11 -145 13 -825 13 l-825 0 0 -940z m660 32 c31 -12 70 -34 89 -49 l33
-28 -38 -50 c-21 -27 -38 -51 -39 -52 -1 -2 -33 13 -71 33 -60 30 -81 36 -141
37 -79 1 -118 -16 -129 -57 -14 -58 14 -78 166 -117 153 -40 232 -89 259 -162
27 -71 6 -175 -47 -230 -105 -111 -362 -114 -511 -7 -23 17 -41 36 -41 43 0 6
16 33 36 60 l35 48 42 -29 c66 -45 120 -62 198 -62 106 0 161 41 144 107 -7
30 -42 47 -175 83 -61 17 -128 39 -149 50 -80 40 -130 132 -116 209 17 88 72
149 168 183 70 25 209 20 287 -10z m643 -194 c88 -38 145 -126 163 -252 5 -36
3 -50 -7 -57 -8 -5 -105 -9 -217 -9 l-203 0 6 -22 c9 -32 36 -68 69 -92 39
-30 145 -29 203 2 23 12 44 22 46 22 5 0 57 -78 57 -85 0 -3 -30 -20 -67 -38
-60 -28 -78 -32 -153 -32 -101 0 -166 25 -223 83 -86 89 -109 233 -54 344 27
55 80 109 135 137 66 34 163 34 245 -1z"/>
<path d="M1110 677 c-29 -15 -70 -72 -70 -98 0 -18 11 -19 146 -19 l146 0 -6
28 c-9 36 -37 74 -67 89 -31 16 -117 16 -149 0z"/>
</g>
</svg>
