<?xml version="1.0" standalone="no"?>
<!DOCTYPE svg PUBLIC "-//W3C//DTD SVG 20010904//EN"
 "http://www.w3.org/TR/2001/REC-SVG-20010904/DTD/svg10.dtd">
<svg version="1.0" xmlns="http://www.w3.org/2000/svg"
 width="400.000000pt" height="400.000000pt" viewBox="0 0 400.000000 400.000000"
 preserveAspectRatio="xMidYMid meet">
<metadata>
Created by potrace 1.15, written by Peter Selinger 2001-2017
</metadata>
<g transform="translate(0.000000,400.000000) scale(0.100000,-0.100000)"
fill="#868e96" stroke="none">
<path d="M1820 3790 c-164 -19 -427 -86 -484 -123 -19 -13 -24 -27 -30 -84 -4
-37 -22 -201 -42 -363 -66 -556 -105 -885 -144 -1210 -21 -178 -37 -326 -35
-328 2 -2 11 11 21 30 14 28 337 605 1030 1843 117 209 122 220 101 228 -32
12 -331 17 -417 7z"/>
<path d="M2313 3628 c-727 -1573 -879 -1902 -939 -2037 l-25 -53 44 38 c24 22
253 233 508 469 256 237 664 614 907 839 243 225 442 412 442 415 0 13 -166
145 -262 208 -160 105 -428 220 -581 248 l-33 6 -61 -133z"/>
<path d="M1075 3539 c-107 -65 -211 -145 -314 -244 -101 -97 -230 -251 -231
-275 0 -8 57 -305 127 -659 l128 -645 102 520 c57 285 139 701 184 922 44 222
79 408 77 413 -2 5 -35 -9 -73 -32z"/>
<path d="M3158 3052 c-280 -302 -1423 -1539 -1572 -1701 -17 -19 -25 -31 -18
-27 7 4 504 234 1105 511 813 376 1093 509 1095 522 5 33 -66 259 -117 374
-74 167 -172 319 -292 457 l-36 42 -165 -178z"/>
<path d="M347 2702 c-3 -9 -17 -48 -31 -87 -37 -97 -74 -249 -90 -361 l-13
-93 139 -248 c93 -165 137 -236 133 -213 -7 43 -103 860 -112 948 -6 64 -17
86 -26 54z"/>
<path d="M3310 1960 c-261 -147 -707 -396 -990 -554 -656 -367 -619 -346 -595
-346 10 0 73 7 140 15 66 8 253 30 415 50 162 19 430 50 595 70 165 20 395 47
510 60 282 34 282 34 288 53 3 9 21 63 40 118 70 203 104 443 92 654 -4 69
-10 130 -13 135 -4 7 -197 -96 -482 -255z"/>
<path d="M3430 1095 c-63 -13 -459 -92 -880 -175 -421 -83 -772 -154 -780
-157 -14 -5 1189 -251 1235 -252 33 -1 152 94 280 223 109 110 203 230 271
344 30 51 35 50 -126 17z"/>
<path d="M1725 448 c11 -8 112 -66 224 -128 232 -129 213 -125 401 -89 123 24
356 97 344 109 -5 4 -74 15 -154 24 -126 14 -622 72 -780 91 -49 6 -53 6 -35
-7z"/>
</g>
</svg>
